<?xml version="1.0" encoding="UTF-8"?>
<!DOCTYPE svg PUBLIC "-//W3C//DTD SVG 1.1//EN" "http://www.w3.org/Graphics/SVG/1.1/DTD/svg11.dtd">
<!-- Creator: CorelDRAW 2018 (64-Bit) -->
<svg xmlns="http://www.w3.org/2000/svg" xml:space="preserve" width="6.3376mm" height="8.5869mm" version="1.1" style="shape-rendering:geometricPrecision; text-rendering:geometricPrecision; image-rendering:optimizeQuality; fill-rule:evenodd; clip-rule:evenodd"
viewBox="0 0 0.61 0.82"
 xmlns:xlink="http://www.w3.org/1999/xlink">
 <defs>
  <style type="text/css">
   <![CDATA[
    .fil0 {fill:black;fill-rule:nonzero}
   ]]>
  </style>
 </defs>
 <g id="img">
  <metadata id="CorelCorpID_0Corel-Layer"/>
  <path class="fil0" d="M0.53 0.32l0 -0.24c0,-0.05 -0.04,-0.09 -0.09,-0.09l-0.28 0c-0.05,0 -0.09,0.04 -0.09,0.09l0 0.24 -0.08 0 0 0.5 0.61 0 0 -0.5 -0.08 0zm-0.38 -0.16l0 0c0,-0.05 0.04,-0.09 0.09,-0.09l0.12 0c0.05,0 0.09,0.04 0.09,0.09l0 0.16 -0.3 0 0 -0.16zm0.2 0.53l0 0c0,0.03 -0.02,0.05 -0.05,0.05 -0.03,0 -0.05,-0.02 -0.05,-0.05l0 -0.19c0,-0.03 0.02,-0.05 0.05,-0.05 0.03,0 0.05,0.02 0.05,0.05l0 0.19z"/>
 </g>
</svg>
